<svg xmlns="http://www.w3.org/2000/svg" width="16" height="20" viewBox="0 0 16 20"><path fill="#000" fill-rule="evenodd" d="M254.993 3894.437V3897h2.042c.541 0 .95.31.971.836-.04.536-.444 1.164-.971 1.164h-6.043c-.557 0-1.034-.573-1.034-1.125v-.125c0-.552.477-.75 1.034-.75h1.987v-2.563c-3.02-.376-6.495-2.394-6.973-6.564-.068-.595.417-.873 1.02-.873h.004c.505 0 .932.251.992.75.814 6.833 11.169 6.708 11.982-.125.06-.499.488-.625.993-.625H261c.603 0 1.062.278.993.873-.477 4.17-2.972 6.188-7 6.564zm3.021 3.438c0-.014-.007-.025-.008-.039.002-.028.008-.058.008-.086v.125zm-6.042-16.375c0-.552.477-.5 1.034-.5h2.014c.556 0 .98-.052.98.5v5c0 1.104-.902 2-2.014 2a2.008 2.008 0 0 1-2.014-2v-5zm2.014 9c2.225 0 4.028-1.791 4.028-4v-6c0-1.105-.875-1.5-1.986-1.5h-4.029c-1.112 0-2.04.395-2.04 1.5v6c0 2.209 1.803 4 4.027 4z" transform="translate(-246 -3879)"/></svg>